<svg xmlns="http://www.w3.org/2000/svg" width="258.753" height="311.057" viewBox="0 0 258.753 311.057">
  <g id="Group_13" data-name="Group 13" transform="translate(-1506.247 -280.943)">
    <path id="Path_14" data-name="Path 14" d="M1518.925,331.293s-.038,18.149,0,26.454c-7.966,0-8.872,5.817-8.872,7.8s.478,9.5,8.872,9.5,8.463-9.5,8.463-9.5" fill="none" stroke="#707070" stroke-linecap="round" stroke-width="6"/>
    <path id="Path_13" data-name="Path 13" d="M1.811,2.474,58,0V16.493L1.811,14.019Z" transform="translate(1517.403 313.381) rotate(-21)" fill="#c4c4c4"/>
    <path id="Path_8" data-name="Path 8" d="M0,0,6.942.3l7.732,140.224-6.942-.3Z" transform="translate(1674.873 357.651) rotate(-11)" fill="#515151"/>
    <path id="Path_9" data-name="Path 9" d="M0,0,4.589.2,9.7,92.906l-4.589-.2Z" transform="translate(1588.334 294.777) rotate(-56)" fill="#515151"/>
    <path id="Path_7" data-name="Path 7" d="M0,0,6.983.165l4.25,139.563-6.983-.165Z" transform="matrix(0.995, -0.105, 0.105, 0.995, 1647.593, 362.328)" fill="#515151"/>
    <path id="Path_10" data-name="Path 10" d="M0,0,4.616.109l2.81,92.269L2.81,92.269Z" transform="matrix(0.629, -0.777, 0.777, 0.629, 1577.768, 309.716)" fill="#515151"/>
    <path id="Path_5" data-name="Path 5" d="M4.333,0H52.877L60,97H0Z" transform="translate(1553 443)" fill="#616161"/>
    <path id="Path_6" data-name="Path 6" d="M4.063.011,53.313,0l3.137,41.13L1.791,52.157Z" transform="translate(1553 449.145)" fill="#586f96"/>
    <rect id="Rectangle_17" data-name="Rectangle 17" width="200" height="36" rx="18" transform="translate(1539 556)" fill="#515151"/>
    <rect id="Rectangle_18" data-name="Rectangle 18" width="188" height="25" rx="12.5" transform="translate(1545 562)" fill="#616161"/>
    <circle id="Ellipse_11" data-name="Ellipse 11" cx="11" cy="11" r="11" transform="translate(1703 564)" fill="#c4c4c4"/>
    <circle id="Ellipse_15" data-name="Ellipse 15" cx="11" cy="11" r="11" transform="translate(1613 564)" fill="#c4c4c4"/>
    <circle id="Ellipse_12" data-name="Ellipse 12" cx="11" cy="11" r="11" transform="translate(1673 564)" fill="#c4c4c4"/>
    <circle id="Ellipse_14" data-name="Ellipse 14" cx="11" cy="11" r="11" transform="translate(1583 564)" fill="#c4c4c4"/>
    <circle id="Ellipse_13" data-name="Ellipse 13" cx="11" cy="11" r="11" transform="translate(1643 564)" fill="#c4c4c4"/>
    <circle id="Ellipse_16" data-name="Ellipse 16" cx="11" cy="11" r="11" transform="translate(1553 564)" fill="#c4c4c4"/>
    <path id="Path_4" data-name="Path 4" d="M0,50.085H48.637V0H212V66H0Z" transform="translate(1553 490)" fill="#ffe044"/>
    <rect id="Rectangle_20" data-name="Rectangle 20" width="212" height="16" transform="translate(1553 540)" fill="#e5c72e"/>
    <rect id="Rectangle_21" data-name="Rectangle 21" width="17" height="16" transform="translate(1748 540)" fill="#b0790c"/>
    <rect id="Rectangle_22" data-name="Rectangle 22" width="64" height="28" rx="2" transform="translate(1684 501)" fill="#515151"/>
    <circle id="Ellipse_17" data-name="Ellipse 17" cx="6" cy="6" r="6" transform="translate(1686 503)" fill="#616161"/>
    <g id="Group_10" data-name="Group 10" transform="translate(-2 38)">
      <circle id="Ellipse_19" data-name="Ellipse 19" cx="19" cy="19" r="19" transform="translate(1647 298)" fill="gray"/>
      <circle id="Ellipse_20" data-name="Ellipse 20" cx="13.5" cy="13.5" r="13.5" transform="translate(1653 304)" fill="#616161"/>
    </g>
    <g id="Group_11" data-name="Group 11" transform="translate(1564.247 298.621) rotate(-45)">
      <circle id="Ellipse_19-2" data-name="Ellipse 19" cx="12.5" cy="12.5" r="12.5" fill="gray"/>
      <circle id="Ellipse_20-2" data-name="Ellipse 20" cx="9" cy="9" r="9" transform="translate(4 4)" fill="#616161"/>
    </g>
    <g id="Group_12" data-name="Group 12" transform="translate(1506.247 322.62) rotate(-45)">
      <circle id="Ellipse_19-3" data-name="Ellipse 19" cx="8.964" cy="8.964" r="8.964" fill="gray"/>
      <circle id="Ellipse_20-3" data-name="Ellipse 20" cx="6.454" cy="6.454" r="6.454" transform="translate(2.869 2.869)" fill="#616161"/>
    </g>
    <circle id="Ellipse_18" data-name="Ellipse 18" cx="6" cy="6" r="6" transform="translate(1698 511)" fill="#616161"/>
    <rect id="Rectangle_23" data-name="Rectangle 23" width="5" height="13" transform="translate(1583 434)" fill="#616161"/>
    <rect id="Rectangle_24" data-name="Rectangle 24" width="8" height="13" transform="translate(1593 434)" fill="#616161"/>
    <rect id="Rectangle_25" data-name="Rectangle 25" width="8" height="13" rx="4" transform="translate(1590.5 438.5) rotate(-90)" fill="#616161"/>
    <path id="Path_11" data-name="Path 11" d="M1712.134,488.427l-48.143-28.218,30.947-44.585-38.163-15.082,24.879-33.926" fill="none" stroke="#515151" stroke-width="2"/>
    <path id="Path_12" data-name="Path 12" d="M1686.2,428.168,1657.966,414l20.633-21.3-24.366-12.074,16.56-21.88" transform="translate(196.34 1275.936) rotate(-47)" fill="none" stroke="#515151" stroke-width="2"/>
  </g>
</svg>
