<svg xmlns="http://www.w3.org/2000/svg" width="340.293" height="210.634" viewBox="0 0 340.293 210.634">
  <g id="Group_22" data-name="Group 22" transform="translate(-1473 -317.366)">
    <g id="Polygon_2" data-name="Polygon 2" transform="translate(1543 413) rotate(180)" fill="#6f706a">
      <path d="M 40.64836502075195 17.5 L 1.351634979248047 17.5 L 21 0.6585443019866943 L 40.64836502075195 17.5 Z" stroke="none"/>
      <path d="M 21 1.317079544067383 L 2.703258514404297 17 L 39.2967414855957 17 L 21 1.317079544067383 M 21 0 L 42 18 L 0 18 L 21 0 Z" stroke="none" fill="#707070"/>
    </g>
    <g id="Group_6" data-name="Group 6" transform="translate(417.812 -131.986)">
      <rect id="Rectangle_3" data-name="Rectangle 3" width="38" height="7.152" transform="translate(1235.953 467)" fill="#273130"/>
      <rect id="Rectangle_4" data-name="Rectangle 4" width="8" height="7.152" transform="translate(1265.953 467)" fill="#f08700"/>
    </g>
    <circle id="Ellipse_10" data-name="Ellipse 10" cx="12.5" cy="12.5" r="12.5" transform="translate(1699 321)" fill="#9fe6ea"/>
    <g id="Group_3" data-name="Group 3" transform="translate(338 -230)">
      <ellipse id="Ellipse_7" data-name="Ellipse 7" cx="39" cy="36.5" rx="39" ry="36.5" transform="translate(1167 685)" fill="#5f5f5f"/>
      <circle id="Ellipse_1" data-name="Ellipse 1" cx="36.5" cy="36.5" r="36.5" transform="translate(1167 685)" fill="#383838"/>
      <circle id="Ellipse_4" data-name="Ellipse 4" cx="23.5" cy="23.5" r="23.5" transform="translate(1180 698)" fill="#b3b3b3"/>
      <circle id="Ellipse_5" data-name="Ellipse 5" cx="14" cy="14" r="14" transform="translate(1190 708)" fill="#cecece"/>
      <circle id="Ellipse_6" data-name="Ellipse 6" cx="9" cy="9" r="9" transform="translate(1195 713)" fill="#a4a4a4"/>
    </g>
    <g id="Group_4" data-name="Group 4" transform="translate(557 -230)">
      <ellipse id="Ellipse_7-2" data-name="Ellipse 7" cx="39" cy="36.5" rx="39" ry="36.5" transform="translate(1167 685)" fill="#5f5f5f"/>
      <circle id="Ellipse_1-2" data-name="Ellipse 1" cx="36.5" cy="36.5" r="36.5" transform="translate(1167 685)" fill="#383838"/>
      <circle id="Ellipse_4-2" data-name="Ellipse 4" cx="23.5" cy="23.5" r="23.5" transform="translate(1180 698)" fill="#b3b3b3"/>
      <circle id="Ellipse_5-2" data-name="Ellipse 5" cx="14" cy="14" r="14" transform="translate(1190 708)" fill="#cecece"/>
      <circle id="Ellipse_6-2" data-name="Ellipse 6" cx="9" cy="9" r="9" transform="translate(1195 713)" fill="#a4a4a4"/>
    </g>
    <path id="Subtraction_1" data-name="Subtraction 1" d="M138,50H38a50,50,0,1,1,100,0Z" transform="translate(1675 430)" fill="#ffeebc"/>
    <path id="Subtraction_2" data-name="Subtraction 2" d="M74,173c-10.993,0-19.912-4.2-26.51-12.5a48.98,48.98,0,0,1-7.526-13.937A82.731,82.731,0,0,1,35.906,129h86.388a64.936,64.936,0,0,1-6.709,17.566A56.944,56.944,0,0,1,104.67,160.5a48.021,48.021,0,0,1-14.176,9.185A42.794,42.794,0,0,1,74,173Z" transform="translate(1849.199 608.999) rotate(180)" fill="#fbb143"/>
    <path id="Path_2" data-name="Path 2" d="M1375,303.94l41.1,85.268s-40.475,13.295-41.1,49.052c-14.374,10.544-219.752,5.5-219.752,5.5s1.241-57.08,53.513-80.528c26.455-7.089,56.467-6.875,92.317-3.1a30.39,30.39,0,0,1,0,3.1c-38.593,0-33.225,29.05-33.225,34.349s2.543,31.509,54.265,31.509,64.506-28.423,52.883-71.057-13-54.095-13-54.095Z" transform="translate(334 35)" fill="#fbb143"/>
    <path id="Intersection_1" data-name="Intersection 1" d="M16.785,23.594A10.656,10.656,0,0,1,13.5,16.25c0-3.1,1.631-6,4.453-8.457L42.179.255Q42.588.249,43,.249v31.5Z" transform="matrix(0.966, -0.259, 0.259, 0.966, 1669.407, 328.254)" fill="#fbb143"/>
    <path id="Path_3" data-name="Path 3" d="M-2.823,9.011c5.5-2.131,39.971-.042,49.846,5.945s12.62,11.779,12.62,17.112H2.817C-7.634,29.128-8.327,11.142-2.823,9.011Z" transform="translate(1576 365)" fill="#383838"/>
    <rect id="Rectangle_5" data-name="Rectangle 5" width="95" height="7" rx="3.5" transform="translate(1473 389)" fill="#909195"/>
    <rect id="Rectangle_6" data-name="Rectangle 6" width="95" height="64" transform="translate(1473 325)" fill="#e3e3e3"/>
    <rect id="Rectangle_7" data-name="Rectangle 7" width="84" height="60" transform="translate(1473 325)" fill="#eee"/>
    <path id="Path_21" data-name="Path 21" d="M1704.618,766.722l9.964,10.189s2.728,2.19,4.918,0,0-4.5,0-4.5l-10.446-10.061,5.529-5.689s6.647,1.4,8.9-2.507a9.52,9.52,0,0,0,1.125-7.3l-4.114,4.179a3.605,3.605,0,0,1-5.143,0c-2.636-2.507,0-5.239,0-5.239l4.146-3.761s-4.628-2.089-8.711,2.539c-1.993,2.6-1.318,6.975-1.318,6.975l-5.914,5.111-6.2-5.625s-3.232-3.2-1.35-6.461,7.553-3.279,7.553-3.279-6.461-3.054-10.254.739-8.2,8.164-8.2,8.164a3.859,3.859,0,0,0-3.6,1.093,2.4,2.4,0,0,0-.418,2.861l3.407,3.632s.675,1.029,2.186,0,2.282-2.121,2.089-3.632,3.889,0,3.889,0l6.4,6.589c0,.064-10.286,8.839-10.286,8.839s-5.145,4.15-1.639,7.779,7.682-.45,7.682-.45Z" transform="translate(-188.159 -403)" fill="#2e3333"/>
    <path id="Path_22" data-name="Path 22" d="M1498.048,168.986s6.381-44.282,79.27-44.282c39.436,0,35.376,45.147,35.376,45.147Z" transform="translate(0 310)" fill="#ffeebc"/>
    <path id="Path_23" data-name="Path 23" d="M1498.048,157.483s4.723-32.779,58.677-32.779c29.192,0,26.187,33.419,26.187,33.419Z" transform="translate(8 321.728)" fill="#f9cd48"/>
  </g>
</svg>
